<?xml version="1.0" encoding="UTF-8" standalone="no"?>
<svg
   xmlns:dc="http://purl.org/dc/elements/1.1/"
   xmlns:cc="http://creativecommons.org/ns#"
   xmlns:rdf="http://www.w3.org/1999/02/22-rdf-syntax-ns#"
   xmlns:svg="http://www.w3.org/2000/svg"
   xmlns="http://www.w3.org/2000/svg"
   xmlns:sodipodi="http://sodipodi.sourceforge.net/DTD/sodipodi-0.dtd"
   xmlns:inkscape="http://www.inkscape.org/namespaces/inkscape"
   width="329.6030578613281"
   height="246.0915985107422"
   id="svg2"
   version="1.1"
   inkscape:version="0.91 r13725"
   sodipodi:docname="downstream.svg">
  <metadata
     id="metadata30">
    <rdf:RDF>
      <cc:Work
         rdf:about="">
        <dc:format>image/svg+xml</dc:format>
        <dc:type
           rdf:resource="http://purl.org/dc/dcmitype/StillImage" />
        <dc:title>my vector image</dc:title>
      </cc:Work>
    </rdf:RDF>
  </metadata>
  <sodipodi:namedview
     pagecolor="#ffffff"
     bordercolor="#666666"
     borderopacity="1"
     objecttolerance="10"
     gridtolerance="10"
     guidetolerance="10"
     inkscape:pageopacity="0"
     inkscape:pageshadow="2"
     inkscape:window-width="969"
     inkscape:window-height="755"
     id="namedview28"
     showgrid="false"
     inkscape:zoom="0.94052525"
     inkscape:cx="164.80153"
     inkscape:cy="123.0458"
     inkscape:window-x="0"
     inkscape:window-y="0"
     inkscape:window-maximized="0"
     inkscape:current-layer="svg2" />
  <title
     id="title4">my vector image</title>
  <!-- Created with Vector Paint - http://www.vectorpaint.yaks.com/ https://chrome.google.com/webstore/detail/hnbpdiengicdefcjecjbnjnoifekhgdo -->
  <rect
     id="backgroundrect"
     width="100%"
     height="100%"
     x="0"
     y="0"
     fill="#FFFFFF"
     stroke="none"
     class="" />
  <path
     style="opacity:1;fill:#8a8ae9;fill-opacity:1;fill-rule:nonzero;stroke:#000000;stroke-width:2;stroke-linecap:butt;stroke-linejoin:round;stroke-dasharray:none;stroke-opacity:1"
     inkscape:connector-curvature="0"
     id="svg_3"
     class=""
     d="m 21.612593,117.43416 c 0,-12.97479 9.810342,-23.484377 21.921875,-23.484377 12.111533,0 21.921875,10.509587 21.921875,23.484377 0,12.97479 -9.810342,23.48437 -21.921875,23.48437 -12.111533,0 -21.921875,-10.50958 -21.921875,-23.48437 z"
     stroke-dashoffset="" />
  <path
     style="opacity:1;fill:#1aebeb;fill-opacity:1;fill-rule:nonzero;stroke:#000000;stroke-width:2;stroke-linecap:butt;stroke-linejoin:round;stroke-dasharray:none;stroke-opacity:1"
     inkscape:connector-curvature="0"
     id="svg_6"
     class=""
     d="m 120.84923,38.224836 c 0,-12.974793 9.81035,-23.484375 21.92188,-23.484375 12.11153,0 21.92187,10.509582 21.92187,23.484375 0,12.974794 -9.81034,23.484376 -21.92187,23.484376 -12.11153,0 -21.92188,-10.509582 -21.92188,-23.484376 z"
     stroke-dashoffset="" />
  <path
     style="opacity:1;fill:#8a8ae9;fill-opacity:1;fill-rule:nonzero;stroke:#000000;stroke-width:2;stroke-linecap:butt;stroke-linejoin:round;stroke-dasharray:none;stroke-opacity:1"
     inkscape:connector-curvature="0"
     id="svg_8"
     class=""
     d="m 225.42939,44.331703 c 0,-12.974793 9.81035,-23.484375 21.92188,-23.484375 12.11153,0 21.92187,10.509582 21.92187,23.484375 0,12.974793 -9.81034,23.484376 -21.92187,23.484376 -12.11153,0 -21.92188,-10.509583 -21.92188,-23.484376 z"
     stroke-dashoffset="" />
  <path
     style="opacity:1;fill:#8ae98a;fill-opacity:1;fill-rule:nonzero;stroke:#000000;stroke-width:2;stroke-linecap:butt;stroke-linejoin:round;stroke-dasharray:none;stroke-opacity:1"
     inkscape:connector-curvature="0"
     id="svg_10"
     class="selected"
     d="m 129.24618,205.40041 c 0,-12.9748 9.81034,-23.48438 21.92187,-23.48438 12.11153,0 21.92188,10.50958 21.92188,23.48438 0,12.97479 -9.81035,23.48437 -21.92188,23.48437 -12.11153,0 -21.92187,-10.50958 -21.92187,-23.48437 z"
     stroke-dashoffset="" />
  <path
     style="opacity:1;fill:#8a8ae9;fill-opacity:1;fill-rule:nonzero;stroke:#000000;stroke-width:2;stroke-linecap:butt;stroke-linejoin:round;stroke-dasharray:none;stroke-opacity:1"
     inkscape:connector-curvature="0"
     id="svg_11"
     class=""
     d="m 229.24618,200.82026 c 0,-12.9748 9.81034,-23.48438 21.92187,-23.48438 12.11154,0 21.92188,10.50958 21.92188,23.48438 0,12.97479 -9.81034,23.48437 -21.92188,23.48437 -12.11153,0 -21.92187,-10.50958 -21.92187,-23.48437 z"
     stroke-dashoffset="" />
  <path
     style="opacity:1;fill:#8ae98a;fill-opacity:1;fill-rule:nonzero;stroke:#000000;stroke-width:2;stroke-linecap:butt;stroke-linejoin:round;stroke-dasharray:none;stroke-opacity:1"
     inkscape:connector-curvature="0"
     id="svg_12"
     class=""
     d="m 259.03506,122.95766 c 0,-12.9748 9.81034,-23.484381 21.92188,-23.484381 12.11153,0 21.92187,10.509581 21.92187,23.484381 0,12.97479 -9.81034,23.48437 -21.92187,23.48437 -12.11154,0 -21.92188,-10.50958 -21.92188,-23.48437 z"
     stroke-dashoffset="" />
  <path
     style="opacity:1;fill:#1aebeb;fill-opacity:1;fill-rule:nonzero;stroke:#d50b0b;stroke-width:2;stroke-linecap:butt;stroke-linejoin:round;stroke-dasharray:none;stroke-opacity:1"
     inkscape:connector-curvature="0"
     id="svg_9"
     class=""
     d="m 167.7958,117.43416 c 0,-12.97479 9.81034,-23.484377 21.92188,-23.484377 12.11153,0 21.92187,10.509587 21.92187,23.484377 0,12.97479 -9.81034,23.48437 -21.92187,23.48437 -12.11154,0 -21.92188,-10.50958 -21.92188,-23.48437 z"
     stroke-dashoffset="" />
  <path
     style="opacity:1;fill:#1aebeb;fill-opacity:1;fill-rule:nonzero;stroke:#000000;stroke-width:2;stroke-linecap:butt;stroke-linejoin:round;stroke-dasharray:none;stroke-opacity:1;marker-end:url(#Arrow2Send)"
     inkscape:connector-curvature="0"
     class=""
     id="svg_4"
     d="M 60.380261,97.29621 119.08105,58.743245"
     stroke-dashoffset="" />
  <path
     style="opacity:1;fill:#1aebeb;fill-opacity:1;fill-rule:nonzero;stroke:#000000;stroke-width:2.40892196;stroke-linecap:butt;stroke-linejoin:round;stroke-dasharray:2.40892172, 2.40892172;stroke-opacity:1;marker-end:url(#Arrow2Send)"
     inkscape:connector-curvature="0"
     class=""
     id="svg_21"
     d="M 162.85608,117.47988 83.694288,117.36794"
     stroke-dashoffset="" />
  <defs
     id="defs24">
    <marker
       id="Arrow2Send"
       refX="0"
       refY="0"
       orient="auto"
       inkscape:stockid="Arrow2Send"
       overflow="visible">
      <path
         d="M-1.926-1.21l3.278 1.205-3.278 1.205c.524-.712.521-1.685 0-2.411z"
         fill-rule="evenodd"
         style="fill: rgb(0, 0, 0); stroke: rgb(0, 0, 0); stroke-dasharray: none;"
         id="svg_2" />
    </marker>
    <marker
       style="overflow:visible"
       id="Arrow2Send-1"
       refX="0"
       refY="0"
       orient="auto"
       inkscape:stockid="Arrow2Send"
       overflow="visible">
      <path
         inkscape:connector-curvature="0"
         d="M -1.926,-1.21 1.352,-0.005 -1.926,1.2 c 0.524,-0.712 0.521,-1.685 0,-2.411 z"
         style="fill:#000000;fill-rule:evenodd;stroke:#000000;stroke-dasharray:none"
         id="svg_2-5" />
    </marker>
    <marker
       style="overflow:visible"
       id="Arrow2Send-7"
       refX="0"
       refY="0"
       orient="auto"
       inkscape:stockid="Arrow2Send"
       overflow="visible">
      <path
         inkscape:connector-curvature="0"
         d="M -1.926,-1.21 1.352,-0.005 -1.926,1.2 c 0.524,-0.712 0.521,-1.685 0,-2.411 z"
         style="fill:#000000;fill-rule:evenodd;stroke:#000000;stroke-dasharray:none"
         id="svg_2-7" />
    </marker>
  </defs>
  <path
     style="opacity:1;fill:#1aebeb;fill-opacity:1;fill-rule:nonzero;stroke:#000000;stroke-width:2.40892196;stroke-linecap:butt;stroke-linejoin:round;stroke-dasharray:2.40892172, 2.40892172;stroke-opacity:1;marker-end:url(#Arrow2Send-1)"
     inkscape:connector-curvature="0"
     class=""
     id="svg_21-7"
     d="M 128.029,188.80161 65.170157,140.68334"
     stroke-dashoffset="" />
</svg>
