<?xml version="1.0" encoding="UTF-8" standalone="no"?>
<svg
   xmlns:dc="http://purl.org/dc/elements/1.1/"
   xmlns:cc="http://creativecommons.org/ns#"
   xmlns:rdf="http://www.w3.org/1999/02/22-rdf-syntax-ns#"
   xmlns:svg="http://www.w3.org/2000/svg"
   xmlns="http://www.w3.org/2000/svg"
   version="1.1"
   id="svg2"
   height="246.0915985107422"
   width="329.6030578613281">
  <metadata
     id="metadata30">
    <rdf:RDF>
      <cc:Work
         rdf:about="">
        <dc:format>image/svg+xml</dc:format>
        <dc:type
           rdf:resource="http://purl.org/dc/dcmitype/StillImage" />
        <dc:title>my vector image</dc:title>
      </cc:Work>
    </rdf:RDF>
  </metadata>
  <title
     id="title4">my vector image</title>
  <!-- Created with Vector Paint - http://www.vectorpaint.yaks.com/ https://chrome.google.com/webstore/detail/hnbpdiengicdefcjecjbnjnoifekhgdo -->
  <rect
     class=""
     stroke="none"
     fill="#FFFFFF"
     y="0"
     x="0"
     height="100%"
     width="100%"
     id="backgroundrect" />
  <path
     stroke-dashoffset=""
     d="m 21.612593,117.43416 c 0,-12.97479 9.810342,-23.484377 21.921875,-23.484377 12.111533,0 21.921875,10.509587 21.921875,23.484377 0,12.97479 -9.810342,23.48437 -21.921875,23.48437 -12.111533,0 -21.921875,-10.50958 -21.921875,-23.48437 z"
     class=""
     id="svg_3"
     style="opacity:1;fill:#8a8ae9;fill-opacity:1;fill-rule:nonzero;stroke:#000000;stroke-width:2;stroke-linecap:butt;stroke-linejoin:round;stroke-dasharray:none;stroke-opacity:1" />
  <path
     stroke-dashoffset=""
     d="m 120.84923,38.224836 c 0,-12.974793 9.81035,-23.484375 21.92188,-23.484375 12.11153,0 21.92187,10.509582 21.92187,23.484375 0,12.974794 -9.81034,23.484376 -21.92187,23.484376 -12.11153,0 -21.92188,-10.509582 -21.92188,-23.484376 z"
     class=""
     id="svg_6"
     style="opacity:1;fill:#1aebeb;fill-opacity:1;fill-rule:nonzero;stroke:#000000;stroke-width:2;stroke-linecap:butt;stroke-linejoin:round;stroke-dasharray:none;stroke-opacity:1" />
  <path
     stroke-dashoffset=""
     d="m 225.42939,44.331703 c 0,-12.974793 9.81035,-23.484375 21.92188,-23.484375 12.11153,0 21.92187,10.509582 21.92187,23.484375 0,12.974793 -9.81034,23.484376 -21.92187,23.484376 -12.11153,0 -21.92188,-10.509583 -21.92188,-23.484376 z"
     class=""
     id="svg_8"
     style="opacity:1;fill:#8a8ae9;fill-opacity:1;fill-rule:nonzero;stroke:#000000;stroke-width:2;stroke-linecap:butt;stroke-linejoin:round;stroke-dasharray:none;stroke-opacity:1" />
  <path
     stroke-dashoffset=""
     d="m 129.24618,205.40041 c 0,-12.9748 9.81034,-23.48438 21.92187,-23.48438 12.11153,0 21.92188,10.50958 21.92188,23.48438 0,12.97479 -9.81035,23.48437 -21.92188,23.48437 -12.11153,0 -21.92187,-10.50958 -21.92187,-23.48437 z"
     class="selected"
     id="svg_10"
     style="opacity:1;fill:#8ae98a;fill-opacity:1;fill-rule:nonzero;stroke:#000000;stroke-width:2;stroke-linecap:butt;stroke-linejoin:round;stroke-dasharray:none;stroke-opacity:1" />
  <path
     stroke-dashoffset=""
     d="m 229.24618,200.82026 c 0,-12.9748 9.81034,-23.48438 21.92187,-23.48438 12.11154,0 21.92188,10.50958 21.92188,23.48438 0,12.97479 -9.81034,23.48437 -21.92188,23.48437 -12.11153,0 -21.92187,-10.50958 -21.92187,-23.48437 z"
     class=""
     id="svg_11"
     style="opacity:1;fill:#8a8ae9;fill-opacity:1;fill-rule:nonzero;stroke:#000000;stroke-width:2;stroke-linecap:butt;stroke-linejoin:round;stroke-dasharray:none;stroke-opacity:1" />
  <path
     stroke-dashoffset=""
     d="m 259.03506,122.95766 c 0,-12.9748 9.81034,-23.484381 21.92188,-23.484381 12.11153,0 21.92187,10.509581 21.92187,23.484381 0,12.97479 -9.81034,23.48437 -21.92187,23.48437 -12.11154,0 -21.92188,-10.50958 -21.92188,-23.48437 z"
     class=""
     id="svg_12"
     style="opacity:1;fill:#8ae98a;fill-opacity:1;fill-rule:nonzero;stroke:#000000;stroke-width:2;stroke-linecap:butt;stroke-linejoin:round;stroke-dasharray:none;stroke-opacity:1" />
  <path
     stroke-dashoffset=""
     d="m 167.7958,117.43416 c 0,-12.97479 9.81034,-23.484377 21.92188,-23.484377 12.11153,0 21.92187,10.509587 21.92187,23.484377 0,12.97479 -9.81034,23.48437 -21.92187,23.48437 -12.11154,0 -21.92188,-10.50958 -21.92188,-23.48437 z"
     class=""
     id="svg_9"
     style="opacity:1;fill:#1aebeb;fill-opacity:1;fill-rule:nonzero;stroke:#d50b0b;stroke-width:2;stroke-linecap:butt;stroke-linejoin:round;stroke-dasharray:none;stroke-opacity:1" />
  <path
     stroke-dashoffset=""
     d="M 60.380261,97.29621 119.08105,58.743245"
     id="svg_4"
     class=""
     style="opacity:1;fill:#1aebeb;fill-opacity:1;fill-rule:nonzero;stroke:#000000;stroke-width:2;stroke-linecap:butt;stroke-linejoin:round;stroke-dasharray:none;stroke-opacity:1;marker-end:url(#Arrow2Send)" />
  <path
     stroke-dashoffset=""
     d="M 162.85608,117.47988 83.694288,117.36794"
     id="svg_21"
     class=""
     style="opacity:1;fill:#1aebeb;fill-opacity:1;fill-rule:nonzero;stroke:#000000;stroke-width:2.40892196;stroke-linecap:butt;stroke-linejoin:round;stroke-dasharray:2.40892172, 2.40892172;stroke-opacity:1;marker-end:url(#Arrow2Send)" />
  <defs
     id="defs24">
    <marker
       overflow="visible"
       orient="auto"
       refY="0"
       refX="0"
       id="Arrow2Send">
      <path
         id="svg_2"
         style="fill: rgb(0, 0, 0); stroke: rgb(0, 0, 0); stroke-dasharray: none;"
         fill-rule="evenodd"
         d="M-1.926-1.21l3.278 1.205-3.278 1.205c.524-.712.521-1.685 0-2.411z" />
    </marker>
    <marker
       overflow="visible"
       orient="auto"
       refY="0"
       refX="0"
       id="Arrow2Send-1"
       style="overflow:visible">
      <path
         id="svg_2-5"
         style="fill:#000000;fill-rule:evenodd;stroke:#000000;stroke-dasharray:none"
         d="M -1.926,-1.21 1.352,-0.005 -1.926,1.2 c 0.524,-0.712 0.521,-1.685 0,-2.411 z" />
    </marker>
    <marker
       overflow="visible"
       orient="auto"
       refY="0"
       refX="0"
       id="Arrow2Send-7"
       style="overflow:visible">
      <path
         id="svg_2-7"
         style="fill:#000000;fill-rule:evenodd;stroke:#000000;stroke-dasharray:none"
         d="M -1.926,-1.21 1.352,-0.005 -1.926,1.2 c 0.524,-0.712 0.521,-1.685 0,-2.411 z" />
    </marker>
  </defs>
</svg>
