<svg xmlns="http://www.w3.org/2000/svg" xmlns:se="http://svg-edit.googlecode.com" xmlns:xlink="http://www.w3.org/1999/xlink" xmlns:dc="http://purl.org/dc/elements/1.1/" xmlns:cc="http://creativecommons.org/ns#" xmlns:rdf="http://www.w3.org/1999/02/22-rdf-syntax-ns#" xmlns:inkscape="http://www.inkscape.org/namespaces/inkscape" width="318.916015625" height="238.4580078125">                                    <title>my vector image</title>                                    <!-- Created with Vector Paint - http://www.vectorpaint.yaks.com/ https://chrome.google.com/webstore/detail/hnbpdiengicdefcjecjbnjnoifekhgdo -->                                    <rect id="backgroundrect" width="100%" height="100%" x="0" y="0" fill="#FFFFFF" stroke="none" class=""/>                                <g class="currentLayer"><title>Layer 1</title><path fill="#8a8ae9" fill-opacity="1" stroke="#000000" stroke-opacity="1" stroke-width="2" stroke-dasharray="none" stroke-linejoin="round" stroke-linecap="butt" stroke-dashoffset="" fill-rule="nonzero" opacity="1" marker-start="" marker-mid="" marker-end="" d="M18.55915641784668,114.38072401285172 C18.55915641784668,101.40593089879545 28.369498295349302,90.89634847640991 40.481031477451324,90.89634847640991 C52.59256465955335,90.89634847640991 62.40290653705597,101.40593089879545 62.40290653705597,114.38072401285172 C62.40290653705597,127.35551712690798 52.59256465955335,137.86509954929352 40.481031477451324,137.86509954929352 C28.369498295349302,137.86509954929352 18.55915641784668,127.35551712690798 18.55915641784668,114.38072401285172 z" class="" id="svg_3"/><path fill="#1aebeb" fill-opacity="1" stroke="#000000" stroke-opacity="1" stroke-width="2" stroke-dasharray="none" stroke-linejoin="round" stroke-linecap="butt" stroke-dashoffset="" fill-rule="nonzero" opacity="1" marker-start="" marker-mid="" marker-end="" d="M117.79579830169678,35.17140203714371 C117.79579830169678,22.19660892308744 127.6061401791994,11.687026500701904 139.71767336130142,11.687026500701904 C151.82920654340344,11.687026500701904 161.63954842090607,22.19660892308744 161.63954842090607,35.17140203714371 C161.63954842090607,48.146195151199976 151.82920654340344,58.65577757358551 139.71767336130142,58.65577757358551 C127.6061401791994,58.65577757358551 117.79579830169678,48.146195151199976 117.79579830169678,35.17140203714371 z" class="" id="svg_6"/><path fill="#8a8ae9" fill-opacity="1" stroke="#000000" stroke-opacity="1" stroke-width="2" stroke-dasharray="none" stroke-linejoin="round" stroke-linecap="butt" stroke-dashoffset="" fill-rule="nonzero" opacity="1" marker-start="" marker-mid="" marker-end="" d="M222.37595748901367,41.27826887369156 C222.37595748901367,28.30347575963529 232.18629936651632,17.793893337249756 244.29783254861832,17.793893337249756 C256.4093657307203,17.793893337249756 266.21970760822296,28.30347575963529 266.21970760822296,41.27826887369156 C266.21970760822296,54.25306198774783 256.4093657307203,64.76264441013336 244.29783254861832,64.76264441013336 C232.18629936651632,64.76264441013336 222.37595748901367,54.25306198774783 222.37595748901367,41.27826887369156 z" class="" id="svg_8"/><path fill="#8ae98a" fill-opacity="1" stroke="#000000" stroke-opacity="1" stroke-width="2" stroke-dasharray="none" stroke-linejoin="round" stroke-linecap="butt" stroke-dashoffset="" fill-rule="nonzero" opacity="1" marker-start="" marker-mid="" marker-end="" d="M126.19273948669434,202.3469734787941 C126.19273948669434,189.3721803647378 136.003081364197,178.8625979423523 148.11461454629898,178.8625979423523 C160.22614772840097,178.8625979423523 170.03648960590363,189.3721803647378 170.03648960590363,202.3469734787941 C170.03648960590363,215.3217665928504 160.22614772840097,225.8313490152359 148.11461454629898,225.8313490152359 C136.003081364197,225.8313490152359 126.19273948669434,215.3217665928504 126.19273948669434,202.3469734787941 z" class="selected" id="svg_10"/><path fill="#8a8ae9" fill-opacity="1" stroke="#000000" stroke-opacity="1" stroke-width="2" stroke-dasharray="none" stroke-linejoin="round" stroke-linecap="butt" stroke-dashoffset="" fill-rule="nonzero" opacity="1" marker-start="" marker-mid="" marker-end="" d="M226.19274139404297,197.76682096719742 C226.19274139404297,184.79202785314112 236.00308327154562,174.28244543075562 248.1146164536476,174.28244543075562 C260.2261496357496,174.28244543075562 270.03649151325226,184.79202785314112 270.03649151325226,197.76682096719742 C270.03649151325226,210.74161408125372 260.2261496357496,221.25119650363922 248.1146164536476,221.25119650363922 C236.00308327154562,221.25119650363922 226.19274139404297,210.74161408125372 226.19274139404297,197.76682096719742 z" class="" id="svg_11"/><path fill="#8ae98a" fill-opacity="1" stroke="#000000" stroke-opacity="1" stroke-width="2" stroke-dasharray="none" stroke-linejoin="round" stroke-linecap="butt" stroke-dashoffset="" fill-rule="nonzero" opacity="1" marker-start="" marker-mid="" marker-end="" d="M255.2003755569458,119.90422064065933 C255.2003755569458,106.92942752660304 265.01071743444845,96.41984510421753 277.12225061655045,96.41984510421753 C289.23378379865244,96.41984510421753 299.0441256761551,106.92942752660304 299.0441256761551,119.90422064065933 C299.0441256761551,132.87901375471563 289.23378379865244,143.38859617710114 277.12225061655045,143.38859617710114 C265.01071743444845,143.38859617710114 255.2003755569458,132.87901375471563 255.2003755569458,119.90422064065933 z" class="" id="svg_12"/><path fill="#1aebeb" fill-opacity="1" stroke="#d50b0b" stroke-opacity="1" stroke-width="2" stroke-dasharray="none" stroke-linejoin="round" stroke-linecap="butt" stroke-dashoffset="" fill-rule="nonzero" opacity="1" marker-start="" marker-mid="" marker-end="" d="M164.74236583709717,114.38072395324707 C164.74236583709717,101.4059308391908 174.55270771459982,90.89634841680527 186.6642408967018,90.89634841680527 C198.7757740788038,90.89634841680527 208.58611595630646,101.4059308391908 208.58611595630646,114.38072395324707 C208.58611595630646,127.35551706730337 198.7757740788038,137.86509948968887 186.6642408967018,137.86509948968887 C174.55270771459982,137.86509948968887 164.74236583709717,127.35551706730337 164.74236583709717,114.38072395324707 z" class="" id="svg_9"/><path fill="#1aebeb" fill-opacity="1" stroke="#000000" stroke-opacity="1" stroke-width="2" stroke-dasharray="none" stroke-linejoin="round" stroke-linecap="butt" stroke-dashoffset="" fill-rule="nonzero" opacity="1" marker-start="" marker-mid="" marker-end="url(#Arrow2Send)" d="M77.39713408690666,112.85400883179369 L147.62614478807936,112.85400883179369 " id="svg_4" class=""/><path fill="#1aebeb" fill-opacity="1" stroke="#000000" stroke-opacity="1" stroke-width="2" stroke-dasharray="2,2" stroke-linejoin="round" stroke-linecap="butt" stroke-dashoffset="" fill-rule="nonzero" opacity="1" marker-start="" marker-mid="" marker-end="url(#Arrow2Send)" d="M207.80917600926665,85.84733711526358 L223.83971106062126,68.29008443997041 " id="svg_15" class=""/><path fill="#1aebeb" fill-opacity="1" stroke="#000000" stroke-opacity="1" stroke-width="2" stroke-dasharray="2,2" stroke-linejoin="round" stroke-linecap="butt" stroke-dashoffset="" fill-rule="nonzero" opacity="1" marker-start="" marker-mid="" marker-end="url(#Arrow2Send)" d="M203.22902313745098,136.99237751720455 L226.89314630849833,169.8168064318831 " id="svg_19" class=""/></g><defs><marker id="Arrow2Send" refX="0" refY="0" orient="auto" inkscape:stockid="Arrow2Send" overflow="visible">
            <path d="M-1.926-1.21l3.278 1.205-3.278 1.205c.524-.712.521-1.685 0-2.411z" fill-rule="evenodd" style="fill: rgb(0, 0, 0); stroke: rgb(0, 0, 0); stroke-dasharray: none;" id="svg_2"/>
        </marker></defs></svg>