<svg xmlns="http://www.w3.org/2000/svg" xmlns:se="http://svg-edit.googlecode.com" xmlns:xlink="http://www.w3.org/1999/xlink" xmlns:dc="http://purl.org/dc/elements/1.1/" xmlns:cc="http://creativecommons.org/ns#" xmlns:rdf="http://www.w3.org/1999/02/22-rdf-syntax-ns#" xmlns:inkscape="http://www.inkscape.org/namespaces/inkscape" width="466.8125" height="285.25">                                    <title>my vector image</title>                                    <!-- Created with Vector Paint - http://www.vectorpaint.yaks.com/ https://chrome.google.com/webstore/detail/hnbpdiengicdefcjecjbnjnoifekhgdo -->                                    <rect id="backgroundrect" width="100%" height="100%" x="0" y="0" fill="#FFFFFF" stroke="none"/>                                <g class="currentLayer"><title>Layer 1</title><path fill="#1aebeb" fill-opacity="1" stroke="#222222" stroke-opacity="1" stroke-width="2" stroke-dasharray="none" stroke-linejoin="round" stroke-linecap="butt" stroke-dashoffset="" fill-rule="nonzero" opacity="1" marker-start="" marker-mid="" marker-end="" d="M171.875,44.6718755364418 C171.875,31.697082422385535 181.68534187750262,21.1875 193.79687505960464,21.1875 C205.90840824170664,21.1875 215.7187501192093,31.697082422385535 215.7187501192093,44.6718755364418 C215.7187501192093,57.64666865049807 205.90840824170664,68.1562510728836 193.79687505960464,68.1562510728836 C181.68534187750262,68.1562510728836 171.875,57.64666865049807 171.875,44.6718755364418 z" class="" id="svg_7"/><path fill="#1aebeb" fill-opacity="1" stroke="#222222" stroke-opacity="1" stroke-width="2" stroke-dasharray="none" stroke-linejoin="round" stroke-linecap="butt" stroke-dashoffset="" fill-rule="nonzero" opacity="1" marker-start="" marker-mid="" marker-end="" d="M59.375,188.4218755364418 C59.375,175.44708242238553 69.18534187750262,164.9375 81.29687505960464,164.9375 C93.40840824170664,164.9375 103.21875011920929,175.44708242238553 103.21875011920929,188.4218755364418 C103.21875011920929,201.39666865049807 93.40840824170664,211.9062510728836 81.29687505960464,211.9062510728836 C69.18534187750262,211.9062510728836 59.375,201.39666865049807 59.375,188.4218755364418 z" class="" id="svg_1"/><path fill="#8a8ae9" fill-opacity="1" stroke="#222222" stroke-opacity="1" stroke-width="2" stroke-dasharray="none" stroke-linejoin="round" stroke-linecap="butt" stroke-dashoffset="" fill-rule="nonzero" opacity="1" marker-start="" marker-mid="" marker-end="" d="M289.0625,54.8281255364418 C289.0625,41.853332422385535 298.87284187750265,31.34375 310.98437505960464,31.34375 C323.09590824170664,31.34375 332.9062501192093,41.853332422385535 332.9062501192093,54.8281255364418 C332.9062501192093,67.80291865049807 323.09590824170664,78.3125010728836 310.98437505960464,78.3125010728836 C298.87284187750265,78.3125010728836 289.0625,67.80291865049807 289.0625,54.8281255364418 z" class="" id="svg_5"/><path fill="#8a8ae9" fill-opacity="1" stroke="#222222" stroke-opacity="1" stroke-width="2" stroke-dasharray="none" stroke-linejoin="round" stroke-linecap="butt" stroke-dashoffset="" fill-rule="nonzero" opacity="1" marker-start="" marker-mid="" marker-end="" d="M48.4375,108.7343755364418 C48.4375,95.75958242238553 58.24784187750265,85.25 70.35937505960464,85.25 C82.47090824170664,85.25 92.28125011920929,95.75958242238553 92.28125011920929,108.7343755364418 C92.28125011920929,121.70916865049807 82.47090824170664,132.2187510728836 70.35937505960464,132.2187510728836 C58.24784187750265,132.2187510728836 48.4375,121.70916865049807 48.4375,108.7343755364418 z" class="" id="svg_6"/><path fill="#8a8ae9" fill-opacity="1" stroke="#222222" stroke-opacity="1" stroke-width="2" stroke-dasharray="none" stroke-linejoin="round" stroke-linecap="butt" stroke-dashoffset="" fill-rule="nonzero" opacity="1" marker-start="" marker-mid="" marker-end="" d="M117.96875,237.6406255364418 C117.96875,224.66583242238553 127.77909187750265,214.15625 139.89062505960464,214.15625 C152.00215824170664,214.15625 161.8125001192093,224.66583242238553 161.8125001192093,237.6406255364418 C161.8125001192093,250.61541865049807 152.00215824170664,261.1250010728836 139.89062505960464,261.1250010728836 C127.77909187750265,261.1250010728836 117.96875,250.61541865049807 117.96875,237.6406255364418 z" class="" id="svg_8"/><path fill="#8a8ae9" fill-opacity="1" stroke="#222222" stroke-opacity="1" stroke-width="2" stroke-dasharray="none" stroke-linejoin="round" stroke-linecap="butt" stroke-dashoffset="" fill-rule="nonzero" opacity="1" marker-start="" marker-mid="" marker-end="" d="M394.53125,220.4531255364418 C394.53125,207.47833242238553 404.34159187750265,196.96875 416.45312505960464,196.96875 C428.56465824170664,196.96875 438.3750001192093,207.47833242238553 438.3750001192093,220.4531255364418 C438.3750001192093,233.42791865049807 428.56465824170664,243.9375010728836 416.45312505960464,243.9375010728836 C404.34159187750265,243.9375010728836 394.53125,233.42791865049807 394.53125,220.4531255364418 z" class="" id="svg_9"/><path fill="#41e841" fill-opacity="1" stroke="#222222" stroke-opacity="1" stroke-width="2" stroke-dasharray="none" stroke-linejoin="round" stroke-linecap="butt" stroke-dashoffset="" fill-rule="nonzero" opacity="1" marker-start="" marker-mid="" marker-end="" d="M403.125,101.7031255364418 C403.125,88.72833242238553 412.93534187750265,78.21875 425.04687505960464,78.21875 C437.15840824170664,78.21875 446.9687501192093,88.72833242238553 446.9687501192093,101.7031255364418 C446.9687501192093,114.67791865049807 437.15840824170664,125.1875010728836 425.04687505960464,125.1875010728836 C412.93534187750265,125.1875010728836 403.125,114.67791865049807 403.125,101.7031255364418 z" class="" id="svg_10"/><path fill="#41e841" fill-opacity="1" stroke="#222222" stroke-opacity="1" stroke-width="2" stroke-dasharray="none" stroke-linejoin="round" stroke-linecap="butt" stroke-dashoffset="" fill-rule="nonzero" opacity="1" marker-start="" marker-mid="" marker-end="" d="M301.5625,125.9218755364418 C301.5625,112.94708242238553 311.37284187750265,102.4375 323.48437505960464,102.4375 C335.59590824170664,102.4375 345.4062501192093,112.94708242238553 345.4062501192093,125.9218755364418 C345.4062501192093,138.89666865049807 335.59590824170664,149.4062510728836 323.48437505960464,149.4062510728836 C311.37284187750265,149.4062510728836 301.5625,138.89666865049807 301.5625,125.9218755364418 z" class="" id="svg_11"/><path fill="#41e841" fill-opacity="1" stroke="#222222" stroke-opacity="1" stroke-width="2" stroke-dasharray="none" stroke-linejoin="round" stroke-linecap="butt" stroke-dashoffset="" fill-rule="nonzero" opacity="1" marker-start="" marker-mid="" marker-end="" d="M131.25,124.3593755364418 C131.25,111.38458242238553 141.06034187750265,100.875 153.17187505960464,100.875 C165.28340824170664,100.875 175.0937501192093,111.38458242238553 175.0937501192093,124.3593755364418 C175.0937501192093,137.33416865049807 165.28340824170664,147.8437510728836 153.17187505960464,147.8437510728836 C141.06034187750265,147.8437510728836 131.25,137.33416865049807 131.25,124.3593755364418 z" class="" id="svg_12"/><path fill="#41e841" fill-opacity="1" stroke="#222222" stroke-opacity="1" stroke-width="2" stroke-dasharray="none" stroke-linejoin="round" stroke-linecap="butt" stroke-dashoffset="" fill-rule="nonzero" opacity="1" marker-start="" marker-mid="" marker-end="" d="M230.46875,236.0781255364418 C230.46875,223.10333242238553 240.27909187750265,212.59375 252.39062505960464,212.59375 C264.50215824170664,212.59375 274.3125001192093,223.10333242238553 274.3125001192093,236.0781255364418 C274.3125001192093,249.05291865049807 264.50215824170664,259.5625010728836 252.39062505960464,259.5625010728836 C240.27909187750265,259.5625010728836 230.46875,249.05291865049807 230.46875,236.0781255364418 z" class="" id="svg_13"/><path fill="#1aebeb" fill-opacity="1" stroke="#222222" stroke-opacity="1" stroke-width="2" stroke-dasharray="none" stroke-linejoin="round" stroke-linecap="butt" stroke-dashoffset="" fill-rule="nonzero" opacity="1" marker-start="" marker-mid="" marker-end="" d="M217.1875,161.8593755364418 C217.1875,148.88458242238553 226.99784187750262,138.375 239.10937505960464,138.375 C251.22090824170664,138.375 261.0312501192093,148.88458242238553 261.0312501192093,161.8593755364418 C261.0312501192093,174.83416865049807 251.22090824170664,185.3437510728836 239.10937505960464,185.3437510728836 C226.99784187750262,185.3437510728836 217.1875,174.83416865049807 217.1875,161.8593755364418 z" class="" id="svg_3"/><path fill="#1aebeb" fill-opacity="1" stroke="#222222" stroke-opacity="1" stroke-width="2" stroke-dasharray="none" stroke-linejoin="round" stroke-linecap="butt" stroke-dashoffset="" fill-rule="nonzero" opacity="1" marker-start="" marker-mid="" marker-end="" d="M304.6875,210.2968755364418 C304.6875,197.32208242238553 314.49784187750265,186.8125 326.60937505960464,186.8125 C338.72090824170664,186.8125 348.5312501192093,197.32208242238553 348.5312501192093,210.2968755364418 C348.5312501192093,223.27166865049807 338.72090824170664,233.7812510728836 326.60937505960464,233.7812510728836 C314.49784187750265,233.7812510728836 304.6875,223.27166865049807 304.6875,210.2968755364418 z" class="" id="svg_4"/><path fill="#41e841" fill-opacity="1" stroke="#222222" stroke-opacity="1" stroke-width="2" stroke-dasharray="none" stroke-linejoin="round" stroke-linecap="butt" stroke-dashoffset="" fill-rule="nonzero" opacity="1" marker-start="" marker-mid="" marker-end="url(#Arrow2Send)" d="M225.77500847969225,46.14062412397469L276.5562596147417,53.95312429859768" id="svg_14" class=""/><path fill="#41e841" fill-opacity="1" stroke="#222222" stroke-opacity="1" stroke-width="2" stroke-dasharray="none" stroke-linejoin="round" stroke-linecap="butt" stroke-dashoffset="" fill-rule="nonzero" opacity="1" marker-start="" marker-mid="" marker-end="url(#Arrow2Send)" d="M289.05625989413846,81.29687490977814L260.15000924803337,129.73437599244068" id="svg_18"/><path fill="#8a8ae9" fill-opacity="1" stroke="#222222" stroke-opacity="1" stroke-width="2" stroke-dasharray="none" stroke-linejoin="round" stroke-linecap="butt" stroke-dashoffset="" fill-rule="nonzero" opacity="1" marker-start="" marker-mid="" marker-end="url(#Arrow2Send)" d="M214.05625821775777,182.07812716241466L167.18125717001988,217.23437794821805" id="svg_20" class=""/></g><defs><marker id="Arrow2Send" refX="0" refY="0" orient="auto" inkscape:stockid="Arrow2Send" overflow="visible">
            <path d="M-1.926-1.21l3.278 1.205-3.278 1.205c.524-.712.521-1.685 0-2.411z" fill-rule="evenodd" style="fill: rgb(0, 0, 0); stroke: rgb(0, 0, 0); stroke-dasharray: none;" id="svg_2"/>
        </marker></defs></svg>