<svg xmlns="http://www.w3.org/2000/svg" xmlns:se="http://svg-edit.googlecode.com" xmlns:xlink="http://www.w3.org/1999/xlink" xmlns:dc="http://purl.org/dc/elements/1.1/" xmlns:cc="http://creativecommons.org/ns#" xmlns:rdf="http://www.w3.org/1999/02/22-rdf-syntax-ns#" xmlns:inkscape="http://www.inkscape.org/namespaces/inkscape" width="329.6030578613281" height="246.0915985107422">                                    <title>my vector image</title>                                    <!-- Created with Vector Paint - http://www.vectorpaint.yaks.com/ https://chrome.google.com/webstore/detail/hnbpdiengicdefcjecjbnjnoifekhgdo -->                                    <rect id="backgroundrect" width="100%" height="100%" x="0" y="0" fill="#FFFFFF" stroke="none" class=""/>                                <g class="currentLayer"><title>Layer 1</title><path fill="#8a8ae9" fill-opacity="1" stroke="#000000" stroke-opacity="1" stroke-width="2" stroke-dasharray="none" stroke-linejoin="round" stroke-linecap="butt" stroke-dashoffset="" fill-rule="nonzero" opacity="1" marker-start="" marker-mid="" marker-end="" d="M21.612592697143555,117.43415838479996 C21.612592697143555,104.45936527074369 31.422934574646177,93.94978284835815 43.5344677567482,93.94978284835815 C55.64600093885022,93.94978284835815 65.45634281635284,104.45936527074369 65.45634281635284,117.43415838479996 C65.45634281635284,130.40895149885623 55.64600093885022,140.91853392124176 43.5344677567482,140.91853392124176 C31.422934574646177,140.91853392124176 21.612592697143555,130.40895149885623 21.612592697143555,117.43415838479996 z" class="" id="svg_3"/><path fill="#1aebeb" fill-opacity="1" stroke="#000000" stroke-opacity="1" stroke-width="2" stroke-dasharray="none" stroke-linejoin="round" stroke-linecap="butt" stroke-dashoffset="" fill-rule="nonzero" opacity="1" marker-start="" marker-mid="" marker-end="" d="M120.84923458099365,38.22483640909195 C120.84923458099365,25.25004329503568 130.65957645849628,14.740460872650146 142.7711096405983,14.740460872650146 C154.88264282270032,14.740460872650146 164.69298470020294,25.25004329503568 164.69298470020294,38.22483640909195 C164.69298470020294,51.19962952314822 154.88264282270032,61.70921194553375 142.7711096405983,61.70921194553375 C130.65957645849628,61.70921194553375 120.84923458099365,51.19962952314822 120.84923458099365,38.22483640909195 z" class="" id="svg_6"/><path fill="#8a8ae9" fill-opacity="1" stroke="#000000" stroke-opacity="1" stroke-width="2" stroke-dasharray="none" stroke-linejoin="round" stroke-linecap="butt" stroke-dashoffset="" fill-rule="nonzero" opacity="1" marker-start="" marker-mid="" marker-end="" d="M225.42939376831055,44.3317032456398 C225.42939376831055,31.356910131583533 235.2397356458132,20.847327709197998 247.3512688279152,20.847327709197998 C259.4628020100172,20.847327709197998 269.27314388751984,31.356910131583533 269.27314388751984,44.3317032456398 C269.27314388751984,57.30649635969607 259.4628020100172,67.8160787820816 247.3512688279152,67.8160787820816 C235.2397356458132,67.8160787820816 225.42939376831055,57.30649635969607 225.42939376831055,44.3317032456398 z" class="" id="svg_8"/><path fill="#8ae98a" fill-opacity="1" stroke="#000000" stroke-opacity="1" stroke-width="2" stroke-dasharray="none" stroke-linejoin="round" stroke-linecap="butt" stroke-dashoffset="" fill-rule="nonzero" opacity="1" marker-start="" marker-mid="" marker-end="" d="M129.2461757659912,205.40040785074234 C129.2461757659912,192.42561473668604 139.05651764349386,181.91603231430054 151.16805082559586,181.91603231430054 C163.27958400769785,181.91603231430054 173.0899258852005,192.42561473668604 173.0899258852005,205.40040785074234 C173.0899258852005,218.37520096479864 163.27958400769785,228.88478338718414 151.16805082559586,228.88478338718414 C139.05651764349386,228.88478338718414 129.2461757659912,218.37520096479864 129.2461757659912,205.40040785074234 z" class="selected" id="svg_10"/><path fill="#8a8ae9" fill-opacity="1" stroke="#000000" stroke-opacity="1" stroke-width="2" stroke-dasharray="none" stroke-linejoin="round" stroke-linecap="butt" stroke-dashoffset="" fill-rule="nonzero" opacity="1" marker-start="" marker-mid="" marker-end="" d="M229.24617767333984,200.82025533914566 C229.24617767333984,187.84546222508936 239.0565195508425,177.33587980270386 251.1680527329445,177.33587980270386 C263.2795859150465,177.33587980270386 273.08992779254913,187.84546222508936 273.08992779254913,200.82025533914566 C273.08992779254913,213.79504845320196 263.2795859150465,224.30463087558746 251.1680527329445,224.30463087558746 C239.0565195508425,224.30463087558746 229.24617767333984,213.79504845320196 229.24617767333984,200.82025533914566 z" class="" id="svg_11"/><path fill="#8ae98a" fill-opacity="1" stroke="#000000" stroke-opacity="1" stroke-width="2" stroke-dasharray="none" stroke-linejoin="round" stroke-linecap="butt" stroke-dashoffset="" fill-rule="nonzero" opacity="1" marker-start="" marker-mid="" marker-end="" d="M259.0350618362427,122.95765501260757 C259.0350618362427,109.98286189855128 268.8454037137453,99.47327947616577 280.9569368958473,99.47327947616577 C293.0684700779493,99.47327947616577 302.87881195545197,109.98286189855128 302.87881195545197,122.95765501260757 C302.87881195545197,135.93244812666387 293.0684700779493,146.44203054904938 280.9569368958473,146.44203054904938 C268.8454037137453,146.44203054904938 259.0350618362427,135.93244812666387 259.0350618362427,122.95765501260757 z" class="" id="svg_12"/><path fill="#1aebeb" fill-opacity="1" stroke="#d50b0b" stroke-opacity="1" stroke-width="2" stroke-dasharray="none" stroke-linejoin="round" stroke-linecap="butt" stroke-dashoffset="" fill-rule="nonzero" opacity="1" marker-start="" marker-mid="" marker-end="" d="M167.79580211639404,117.43415832519531 C167.79580211639404,104.45936521113904 177.6061439938967,93.94978278875351 189.7176771759987,93.94978278875351 C201.82921035810068,93.94978278875351 211.63955223560333,104.45936521113904 211.63955223560333,117.43415832519531 C211.63955223560333,130.4089514392516 201.82921035810068,140.91853386163712 189.7176771759987,140.91853386163712 C177.6061439938967,140.91853386163712 167.79580211639404,130.4089514392516 167.79580211639404,117.43415832519531 z" class="" id="svg_9"/><path fill="#1aebeb" fill-opacity="1" stroke="#000000" stroke-opacity="1" stroke-width="2" stroke-dasharray="none" stroke-linejoin="round" stroke-linecap="butt" stroke-dashoffset="" fill-rule="nonzero" opacity="1" marker-start="" marker-mid="" marker-end="url(#Arrow2Send)" d="M80.45057036620354,115.90744320374193 L150.67958106737623,115.90744320374193 " id="svg_4" class=""/><path fill="#1aebeb" fill-opacity="1" stroke="#000000" stroke-opacity="1" stroke-width="2" stroke-dasharray="2,2" stroke-linejoin="round" stroke-linecap="butt" stroke-dashoffset="" fill-rule="nonzero" opacity="1" marker-start="" marker-mid="" marker-end="url(#Arrow2Send)" d="M172.6946715695953,86.61069501113576 L160.48093057808697,66.0000070879655 " id="svg_13" class=""/><path fill="#1aebeb" fill-opacity="1" stroke="#000000" stroke-opacity="1" stroke-width="2" stroke-dasharray="2,2" stroke-linejoin="round" stroke-linecap="butt" stroke-dashoffset="" fill-rule="nonzero" opacity="1" marker-start="" marker-mid="" marker-end="url(#Arrow2Send)" d="M210.86261228856353,88.90077148721183 L226.89314733991813,71.34351881191866 " id="svg_15" class=""/><path fill="#1aebeb" fill-opacity="1" stroke="#000000" stroke-opacity="1" stroke-width="2" stroke-dasharray="2,2" stroke-linejoin="round" stroke-linecap="butt" stroke-dashoffset="" fill-rule="nonzero" opacity="1" marker-start="" marker-mid="" marker-end="url(#Arrow2Send)" d="M218.4962004082562,117.90840634204403 L245.21375882718058,119.43512396598254 " id="svg_17" class=""/><path fill="#1aebeb" fill-opacity="1" stroke="#000000" stroke-opacity="1" stroke-width="2" stroke-dasharray="2,2" stroke-linejoin="round" stroke-linecap="butt" stroke-dashoffset="" fill-rule="nonzero" opacity="1" marker-start="" marker-mid="" marker-end="url(#Arrow2Send)" d="M206.28245941674786,140.0458118891528 L229.9465825877952,172.87024080383134 " id="svg_19" class=""/><path fill="#1aebeb" fill-opacity="1" stroke="#000000" stroke-opacity="1" stroke-width="2" stroke-dasharray="2,2" stroke-linejoin="round" stroke-linecap="butt" stroke-dashoffset="" fill-rule="nonzero" opacity="1" marker-start="" marker-mid="" marker-end="url(#Arrow2Send)" d="M174.22138931403862,143.86260594899915 L163.53436594646888,171.34352317989286 " id="svg_21" class=""/></g><defs><marker id="Arrow2Send" refX="0" refY="0" orient="auto" inkscape:stockid="Arrow2Send" overflow="visible">
            <path d="M-1.926-1.21l3.278 1.205-3.278 1.205c.524-.712.521-1.685 0-2.411z" fill-rule="evenodd" style="fill: rgb(0, 0, 0); stroke: rgb(0, 0, 0); stroke-dasharray: none;" id="svg_2"/>
        </marker></defs></svg>