<svg xmlns="http://www.w3.org/2000/svg" xmlns:se="http://svg-edit.googlecode.com" xmlns:xlink="http://www.w3.org/1999/xlink" xmlns:dc="http://purl.org/dc/elements/1.1/" xmlns:cc="http://creativecommons.org/ns#" xmlns:rdf="http://www.w3.org/1999/02/22-rdf-syntax-ns#" xmlns:inkscape="http://www.inkscape.org/namespaces/inkscape" width="466.81249514548085" height="285.24999846331764">                                    <title>my vector image</title>                                    <!-- Created with Vector Paint - http://www.vectorpaint.yaks.com/ https://chrome.google.com/webstore/detail/hnbpdiengicdefcjecjbnjnoifekhgdo -->                                    <rect id="backgroundrect" width="100%" height="100%" x="0" y="0" fill="#FFFFFF" stroke="none"/>                                <g class="currentLayer"><title>Layer 1</title><path fill="#1aebeb" fill-opacity="1" stroke="#d50b0b" stroke-opacity="1" stroke-width="2" stroke-dasharray="none" stroke-linejoin="round" stroke-linecap="butt" stroke-dashoffset="" fill-rule="nonzero" opacity="1" marker-start="" marker-mid="" marker-end="" d="M43.75,172.7968755364418 C43.75,159.82208242238553 53.56034187750262,149.3125 65.67187505960464,149.3125 C77.78340824170667,149.3125 87.59375011920929,159.82208242238553 87.59375011920929,172.7968755364418 C87.59375011920929,185.77166865049807 77.78340824170667,196.2812510728836 65.67187505960464,196.2812510728836 C53.56034187750262,196.2812510728836 43.75,185.77166865049807 43.75,172.7968755364418 z" id="svg_1" class=""/><path fill="#1aebeb" fill-opacity="1" stroke="#222222" stroke-opacity="1" stroke-width="2" stroke-dasharray="none" stroke-linejoin="round" stroke-linecap="butt" stroke-dashoffset="" fill-rule="nonzero" opacity="1" marker-start="" marker-mid="" marker-end="" d="M117.1875,99.3593755364418 C117.1875,86.38458242238553 126.99784187750262,75.875 139.10937505960464,75.875 C151.22090824170664,75.875 161.0312501192093,86.38458242238553 161.0312501192093,99.3593755364418 C161.0312501192093,112.33416865049807 151.22090824170664,122.8437510728836 139.10937505960464,122.8437510728836 C126.99784187750262,122.8437510728836 117.1875,112.33416865049807 117.1875,99.3593755364418 z" class="" id="svg_7"/><path fill="#1aebeb" fill-opacity="1" stroke="#222222" stroke-opacity="1" stroke-width="2" stroke-dasharray="none" stroke-linejoin="round" stroke-linecap="butt" stroke-dashoffset="" fill-rule="nonzero" opacity="1" marker-start="" marker-mid="" marker-end="" d="M121.875,207.9531255364418 C121.875,194.97833242238553 131.68534187750262,184.46875 143.79687505960464,184.46875 C155.90840824170664,184.46875 165.7187501192093,194.97833242238553 165.7187501192093,207.9531255364418 C165.7187501192093,220.92791865049807 155.90840824170664,231.4375010728836 143.79687505960464,231.4375010728836 C131.68534187750262,231.4375010728836 121.875,220.92791865049807 121.875,207.9531255364418 z" class="" id="svg_8"/><path fill="#1aebeb" fill-opacity="1" stroke="#d50b0b" stroke-opacity="1" stroke-width="2" stroke-dasharray="none" stroke-linejoin="round" stroke-linecap="butt" stroke-dashoffset="" fill-rule="nonzero" opacity="1" marker-start="" marker-mid="" marker-end="" d="M193.75,138.4218755364418 C193.75,125.44708242238553 203.56034187750265,114.9375 215.67187505960464,114.9375 C227.78340824170664,114.9375 237.5937501192093,125.44708242238553 237.5937501192093,138.4218755364418 C237.5937501192093,151.3966686504981 227.78340824170664,161.9062510728836 215.67187505960464,161.9062510728836 C203.56034187750265,161.9062510728836 193.75,151.3966686504981 193.75,138.4218755364418 z" class="" id="svg_9"/><path fill="#1aebeb" fill-opacity="1" stroke="#d50b0b" stroke-opacity="1" stroke-width="2" stroke-dasharray="none" stroke-linejoin="round" stroke-linecap="butt" stroke-dashoffset="" fill-rule="nonzero" opacity="1" marker-start="" marker-mid="" marker-end="" d="M228.90625,53.2656255364418 C228.90625,40.290832422385535 238.71659187750265,29.78125 250.82812505960464,29.78125 C262.93965824170664,29.78125 272.7500001192093,40.290832422385535 272.7500001192093,53.2656255364418 C272.7500001192093,66.2404186504981 262.93965824170664,76.7500010728836 250.82812505960464,76.7500010728836 C238.71659187750265,76.7500010728836 228.90625,66.2404186504981 228.90625,53.2656255364418 z" class="" id="svg_10"/><path fill="#1aebeb" fill-opacity="1" stroke="#d50b0b" stroke-opacity="1" stroke-width="2" stroke-dasharray="none" stroke-linejoin="round" stroke-linecap="butt" stroke-dashoffset="" fill-rule="nonzero" opacity="1" marker-start="" marker-mid="" marker-end="" d="M221.09375,225.9218755364418 C221.09375,212.94708242238553 230.90409187750265,202.4375 243.01562505960464,202.4375 C255.12715824170664,202.4375 264.9375001192093,212.94708242238553 264.9375001192093,225.9218755364418 C264.9375001192093,238.8966686504981 255.12715824170664,249.4062510728836 243.01562505960464,249.4062510728836 C230.90409187750265,249.4062510728836 221.09375,238.8966686504981 221.09375,225.9218755364418 z" class="" id="svg_11"/><path fill="#1aebeb" fill-opacity="1" stroke="#d50b0b" stroke-opacity="1" stroke-width="2" stroke-dasharray="none" stroke-linejoin="round" stroke-linecap="butt" stroke-dashoffset="" fill-rule="nonzero" opacity="1" marker-start="" marker-mid="" marker-end="" d="M285.15625,154.8281255364418 C285.15625,141.85333242238553 294.96659187750265,131.34375 307.07812505960464,131.34375 C319.18965824170664,131.34375 329.0000001192093,141.85333242238553 329.0000001192093,154.8281255364418 C329.0000001192093,167.8029186504981 319.18965824170664,178.3125010728836 307.07812505960464,178.3125010728836 C294.96659187750265,178.3125010728836 285.15625,167.8029186504981 285.15625,154.8281255364418 z" class="" id="svg_12"/><path fill="#1aebeb" fill-opacity="1" stroke="#222222" stroke-opacity="1" stroke-width="2" stroke-dasharray="none" stroke-linejoin="round" stroke-linecap="butt" stroke-dashoffset="" fill-rule="nonzero" opacity="1" marker-start="" marker-mid="" marker-end="" d="M306.25,71.2343755364418 C306.25,58.259582422385535 316.06034187750265,47.75 328.17187505960464,47.75 C340.28340824170664,47.75 350.0937501192093,58.259582422385535 350.0937501192093,71.2343755364418 C350.0937501192093,84.2091686504981 340.28340824170664,94.7187510728836 328.17187505960464,94.7187510728836 C316.06034187750265,94.7187510728836 306.25,84.2091686504981 306.25,71.2343755364418 z" class="" id="svg_13"/><path fill="#1aebeb" fill-opacity="1" stroke="#222222" stroke-opacity="1" stroke-width="2" stroke-dasharray="none" stroke-linejoin="round" stroke-linecap="butt" stroke-dashoffset="" fill-rule="nonzero" opacity="1" marker-start="" marker-mid="" marker-end="" d="M362.5,186.8593755364418 C362.5,173.88458242238553 372.31034187750265,163.375 384.42187505960464,163.375 C396.53340824170664,163.375 406.3437501192093,173.88458242238553 406.3437501192093,186.8593755364418 C406.3437501192093,199.8341686504981 396.53340824170664,210.3437510728836 384.42187505960464,210.3437510728836 C372.31034187750265,210.3437510728836 362.5,199.8341686504981 362.5,186.8593755364418 z" class="" id="svg_14"/><path fill="#1aebeb" fill-opacity="1" stroke="#000000" stroke-opacity="1" stroke-width="2" stroke-dasharray="none" stroke-linejoin="round" stroke-linecap="butt" stroke-dashoffset="" fill-rule="nonzero" opacity="1" marker-start="" marker-mid="" marker-end="url(#Arrow2Send)" d="M107.9500008172356,158.78125843429027 L169.66875219675717,146.2812581548935 " id="svg_27" class=""/><path fill="#1aebeb" fill-opacity="1" stroke="#000000" stroke-opacity="1" stroke-width="2" stroke-dasharray="none" stroke-linejoin="round" stroke-linecap="butt" stroke-dashoffset="" fill-rule="nonzero" opacity="1" marker-start="" marker-mid="" marker-end="url(#Arrow2Send)" d="M226.7000033841935,165.81250867876247 L236.0750035937411,192.37500927248064 " id="svg_30" class=""/><path fill="#1aebeb" fill-opacity="1" stroke="#000000" stroke-opacity="1" stroke-width="2" stroke-dasharray="none" stroke-linejoin="round" stroke-linecap="butt" stroke-dashoffset="" fill-rule="nonzero" opacity="1" marker-start="" marker-mid="" marker-end="url(#Arrow2Send)" d="M265.7625043446199,204.09375944710362 L287.63750483356426,184.56250901054614 " id="svg_33" class=""/><path fill="#1aebeb" fill-opacity="1" stroke="#000000" stroke-opacity="1" stroke-width="2" stroke-dasharray="none" stroke-linejoin="round" stroke-linecap="butt" stroke-dashoffset="" fill-rule="nonzero" opacity="1" marker-start="" marker-mid="" marker-end="url(#Arrow2Send)" d="M290.76250490341346,125.96875770087374 L270.4500044493937,83.00000674044729 " id="svg_35" class=""/></g><defs><marker id="Arrow2Send" refX="0" refY="0" orient="auto" inkscape:stockid="Arrow2Send" overflow="visible">
            <path d="M-1.926-1.21l3.278 1.205-3.278 1.205c.524-.712.521-1.685 0-2.411z" fill-rule="evenodd" style="fill: rgb(0, 0, 0); stroke: rgb(0, 0, 0); stroke-dasharray: none;"/>
        </marker></defs></svg>